<svg xmlns="http://www.w3.org/2000/svg" viewBox="0 0 635.98 576.38"><defs><style>.cls-1{fill:#fced1e;}.cls-1,.cls-2{opacity:0.5;}.cls-2{fill:#8bc53f;}</style></defs><g id="Layer_2" data-name="Layer 2"><g id="Layer_1-2" data-name="Layer 1"><path class="cls-1" d="M574.35,0H135.43a171.89,171.89,0,0,1,24,87.93A172.73,172.73,0,0,1,0,260.14V465.66A370.27,370.27,0,0,0,264.55,576.38C469.68,576.38,636,410.09,636,205A369.7,369.7,0,0,0,574.35,0Z"/><path class="cls-1" d="M0,260.14A172.73,172.73,0,0,0,159.48,87.93,171.89,171.89,0,0,0,135.43,0H0Z"/><path class="cls-2" d="M0,260.14A172.73,172.73,0,0,0,159.48,87.93,171.89,171.89,0,0,0,135.43,0H0Z"/></g></g></svg>