<svg xmlns="http://www.w3.org/2000/svg" viewBox="0 0 249.5 587.93"><defs><style>.cls-1{fill:#eb008b;}.cls-1,.cls-2{opacity:0.5;}.cls-2{fill:#44c6ed;}</style></defs><g id="Layer_2" data-name="Layer 2"><g id="Layer_1-2" data-name="Layer 1"><path class="cls-1" d="M137.89,289.65a193.64,193.64,0,0,0-34,109.91c0,90.55,61.86,166.66,145.62,188.37V332.47A296.65,296.65,0,0,1,137.89,289.65Z"/><path class="cls-2" d="M249.5,211.18V0H2.4A301.58,301.58,0,0,0,0,38C0,143.73,55,236.61,137.89,289.65A194.8,194.8,0,0,1,249.5,211.18Z"/><path class="cls-1" d="M249.5,211.18a194.8,194.8,0,0,0-111.61,78.47A296.65,296.65,0,0,0,249.5,332.47Z"/><path class="cls-2" d="M249.5,211.18a194.8,194.8,0,0,0-111.61,78.47A296.65,296.65,0,0,0,249.5,332.47Z"/></g></g></svg>