<svg xmlns="http://www.w3.org/2000/svg" viewBox="0 0 297.13 617.48"><defs><style>.cls-1{fill:#44c6ed;}.cls-1,.cls-2{opacity:0.5;}.cls-2{fill:#8bc53f;}</style></defs><g id="Layer_2" data-name="Layer 2"><g id="Layer_1-2" data-name="Layer 1"><path class="cls-1" d="M297.13,216.64C297.13,97,200.14,0,80.49,0A216.09,216.09,0,0,0,.17,15.39L.06,386.57a172,172,0,0,1,106.21,45.19C213.77,419,297.13,327.57,297.13,216.64Z"/><path class="cls-2" d="M.06,417.86,0,617.48H152a172.28,172.28,0,0,0,10.19-58.54,172.2,172.2,0,0,0-55.88-127.18,219.38,219.38,0,0,1-25.78,1.53A216,216,0,0,1,.06,417.86Z"/><path class="cls-1" d="M.06,417.86a216,216,0,0,0,80.43,15.43,219.38,219.38,0,0,0,25.78-1.53A172,172,0,0,0,.06,386.57Z"/><path class="cls-2" d="M.06,417.86a216,216,0,0,0,80.43,15.43,219.38,219.38,0,0,0,25.78-1.53A172,172,0,0,0,.06,386.57Z"/></g></g></svg>