<svg xmlns="http://www.w3.org/2000/svg" viewBox="0 0 291.88 768.06"><defs><style>.cls-1{fill:#fced1e;}.cls-1,.cls-2{opacity:0.5;}.cls-2{fill:#eb008b;}</style></defs><g id="Layer_2" data-name="Layer 2"><g id="Layer_1-2" data-name="Layer 1"><path class="cls-1" d="M109.25,313.58A194.24,194.24,0,0,0,263.09,389,196.69,196.69,0,0,0,291.36,387V214.29A370.72,370.72,0,0,0,109.25,313.58Z"/><path class="cls-1" d="M291.88,387.13a196.72,196.72,0,0,1-28.28,2.05,194.26,194.26,0,0,1-153.84-75.43A371.56,371.56,0,0,0,52.64,768.06H291.88Z"/><path class="cls-2" d="M69,194.59a193.74,193.74,0,0,0,40.75,119.16,370.71,370.71,0,0,1,182.12-99.29V2.05A196.72,196.72,0,0,0,263.6,0C156.13,0,69,87.12,69,194.59Z"/><path class="cls-2" d="M109.76,313.75A194.26,194.26,0,0,0,263.6,389.18a196.72,196.72,0,0,0,28.28-2.05V214.46A370.71,370.71,0,0,0,109.76,313.75Z"/></g></g></svg>