<svg xmlns="http://www.w3.org/2000/svg" viewBox="0 0 366.73 45.45"><defs><style>.cls-1{fill:#fff100;}</style></defs><g id="Layer_2" data-name="Layer 2"><g id="Layer_1-2" data-name="Layer 1"><path class="cls-1" d="M0,35.11c.1-1.6.2-4.48.2-7.23V0H7.72V13.79h.1a8.51,8.51,0,0,1,7.31-3.43c5.81,0,10,4.81,10,12.22,0,8.72-5.52,13.08-11.07,13.08a7.91,7.91,0,0,1-7.23-3.92H6.7l-.31,3.37ZM7.72,24.84a5.94,5.94,0,0,0,.14,1.32,4.59,4.59,0,0,0,4.43,3.58c3.19,0,5.19-2.49,5.19-6.84,0-3.76-1.69-6.73-5.18-6.73a4.62,4.62,0,0,0-4.42,3.71,6.23,6.23,0,0,0-.16,1.39Z"/><path class="cls-1" d="M29.77,0h7.54V35.11H29.77Z"/><path class="cls-1" d="M67.24,22.77c0,8.84-6.26,12.89-12.75,12.89-7,0-12.5-4.66-12.5-12.47s5.15-12.83,12.93-12.83C62.32,10.36,67.24,15.46,67.24,22.77ZM49.75,23c0,4.13,1.74,7.26,5,7.26,2.93,0,4.79-2.94,4.79-7.3,0-3.57-1.38-7.24-4.79-7.24C51.12,15.74,49.75,19.43,49.75,23Z"/><path class="cls-1" d="M94.7,27.35c0,3.15.09,5.75.2,7.76H88.37L88,31.7h-.15a8.61,8.61,0,0,1-7.55,4c-4.91,0-8.5-3.08-8.5-10.52V10.91h7.54v13c0,3.54,1.13,5.66,3.79,5.66a4,4,0,0,0,3.74-2.65,4.09,4.09,0,0,0,.27-1.6V10.91H94.7Z"/><path class="cls-1" d="M100.73,18.64c0-3-.09-5.56-.2-7.73h6.53l.35,3.35h.16a8.75,8.75,0,0,1,7.48-3.9c4.94,0,8.66,3.3,8.66,10.42V35.11h-7.54V21.7c0-3.12-1.11-5.26-3.82-5.26a4.07,4.07,0,0,0-3.82,2.85,5.42,5.42,0,0,0-.26,1.86v14h-7.54Z"/><path class="cls-1" d="M137.81,4v6.91h5.41v5.55h-5.41v8.77c0,2.92.72,4.26,3,4.26a10,10,0,0,0,2.23-.22l.06,5.71a15.57,15.57,0,0,1-4.87.65,7.82,7.82,0,0,1-5.67-2.1c-1.4-1.43-2.08-3.74-2.08-7.17v-9.9h-3.22V10.91h3.22V5.71Z"/><path class="cls-1" d="M157.55,0h7.54V35.11h-7.54Z"/><path class="cls-1" d="M178.9,4.19A3.74,3.74,0,0,1,174.85,8a3.7,3.7,0,0,1-3.92-3.76,4,4,0,0,1,8,0Zm-7.75,30.92V10.91h7.53v24.2Z"/><path class="cls-1" d="M193.09,4v6.91h5.42v5.55h-5.42v8.77c0,2.92.72,4.26,3,4.26a10,10,0,0,0,2.23-.22l.07,5.71a15.64,15.64,0,0,1-4.88.65,7.84,7.84,0,0,1-5.67-2.1c-1.4-1.43-2.08-3.74-2.08-7.17v-9.9h-3.22V10.91h3.22V5.71Z"/><path class="cls-1" d="M212.83,19c0-3.18-.09-5.86-.2-8.13h6.54l.35,3.38h.1a9.36,9.36,0,0,1,8.06-3.93c5.3,0,10.06,4.61,10.06,12.33,0,8.83-5.62,13-11,13-2.89,0-5.21-1.17-6.27-2.76h-.1v12h-7.53Zm7.53,5.71a7,7,0,0,0,.15,1.57,4.56,4.56,0,0,0,4.4,3.57c3.25,0,5.19-2.74,5.19-6.85,0-3.84-1.72-6.79-5.07-6.79a4.71,4.71,0,0,0-4.5,3.81,5.49,5.49,0,0,0-.17,1.35Z"/><path class="cls-1" d="M242.4,18.89c0-3.56-.06-5.9-.2-8h6.47l.27,4.48h.19a7.09,7.09,0,0,1,6.53-5,6.61,6.61,0,0,1,1.61.14v7.08a9.45,9.45,0,0,0-2-.21c-2.77,0-4.66,1.46-5.16,3.82a8.5,8.5,0,0,0-.14,1.68V35.11H242.4Z"/><path class="cls-1" d="M284.67,22.77c0,8.84-6.26,12.89-12.75,12.89-7,0-12.5-4.66-12.5-12.47s5.15-12.83,12.93-12.83C279.75,10.36,284.67,15.46,284.67,22.77Zm-17.5.25c0,4.13,1.75,7.26,5,7.26,2.93,0,4.79-2.94,4.79-7.3,0-3.57-1.38-7.24-4.79-7.24C268.54,15.74,267.17,19.43,267.17,23Z"/><path class="cls-1" d="M284.37,39.58A6.8,6.8,0,0,0,288.8,38c1.1-1.12,1.5-3.06,1.5-7.88V10.91h7.54v21c0,5.27-1.16,8.47-3.4,10.58s-5.75,2.94-9.35,3ZM298,4.19a4,4,0,0,1-8,0,4,4,0,0,1,8,0Z"/><path class="cls-1" d="M309.52,25.43c.23,3.12,3.31,4.61,6.82,4.61A20.24,20.24,0,0,0,323,29l1,5.09a23.54,23.54,0,0,1-8.77,1.53c-8.2,0-12.91-4.77-12.91-12.32,0-6.15,3.84-12.95,12.2-12.95,7.85,0,10.81,6.1,10.81,12.09a14.66,14.66,0,0,1-.27,3Zm8.83-5.16c0-1.81-.79-4.9-4.22-4.9-3.17,0-4.46,2.9-4.67,4.9Z"/><path class="cls-1" d="M348,34.51a17.82,17.82,0,0,1-6.74,1.12c-7.82,0-12.8-4.79-12.8-12.39,0-7.07,4.84-12.86,13.84-12.86a17.17,17.17,0,0,1,5.74,1l-1.17,5.59a10.06,10.06,0,0,0-4.21-.77c-4,0-6.53,2.82-6.5,6.78,0,4.44,3,6.8,6.62,6.8a11.27,11.27,0,0,0,4.34-.78Z"/><path class="cls-1" d="M361.32,4v6.91h5.41v5.55h-5.41v8.77c0,2.92.72,4.26,3,4.26a10,10,0,0,0,2.23-.22l.06,5.71a15.57,15.57,0,0,1-4.87.65,7.82,7.82,0,0,1-5.67-2.1c-1.4-1.43-2.08-3.74-2.08-7.17v-9.9h-3.22V10.91H354V5.71Z"/></g></g></svg>