<svg xmlns="http://www.w3.org/2000/svg" viewBox="0 0 190.17 190.17"><defs><style>.cls-1{fill:#fff200;}.cls-2{fill:#262620;}</style></defs><g id="Layer_2" data-name="Layer 2"><g id="Layer_1-2" data-name="Layer 1"><circle class="cls-1" cx="95.09" cy="95.09" r="95.09"/><path class="cls-2" d="M15.7,69.34c.08-1.2.15-3.37.15-5.43V43H21.5V53.33h.08a6.37,6.37,0,0,1,5.48-2.58c4.37,0,7.55,3.61,7.5,9.18,0,6.55-4.15,9.82-8.31,9.82a6,6,0,0,1-5.44-2.94h-.07l-.24,2.53Zm5.8-7.72a5.05,5.05,0,0,0,.1,1,3.46,3.46,0,0,0,3.33,2.69c2.4,0,3.89-1.87,3.89-5.14,0-2.83-1.26-5.06-3.88-5.06a3.46,3.46,0,0,0-3.32,2.79A5,5,0,0,0,21.5,59Z"/><path class="cls-2" d="M38.06,43h5.66V69.34H38.06Z"/><path class="cls-2" d="M66.19,60.07c0,6.64-4.7,9.68-9.57,9.68-5.29,0-9.39-3.5-9.39-9.37s3.87-9.63,9.71-9.63C62.5,50.75,66.19,54.58,66.19,60.07Zm-13.14.19c0,3.1,1.31,5.45,3.72,5.45,2.21,0,3.6-2.21,3.6-5.48,0-2.68-1-5.44-3.59-5.44S53.05,57.56,53.05,60.26Z"/><path class="cls-2" d="M86.81,63.51c0,2.37.07,4.32.15,5.83h-4.9l-.26-2.57h-.12a6.42,6.42,0,0,1-5.66,3c-3.7,0-6.39-2.31-6.39-7.9V51.16h5.66v9.77c0,2.66.85,4.25,2.85,4.25a3,3,0,0,0,2.81-2,3.09,3.09,0,0,0,.2-1.19V51.16h5.66Z"/><path class="cls-2" d="M91.34,57c0-2.27-.07-4.18-.15-5.81h4.9l.26,2.52h.12a6.58,6.58,0,0,1,5.62-2.93c3.71,0,6.5,2.48,6.5,7.83V69.34h-5.65V59.26c0-2.34-.84-3.94-2.88-3.94a3.05,3.05,0,0,0-2.86,2.13,4,4,0,0,0-.2,1.4V69.34H91.34Z"/><path class="cls-2" d="M119.18,46v5.18h4.07v4.17h-4.07v6.59c0,2.19.54,3.2,2.23,3.2a7.54,7.54,0,0,0,1.68-.17l0,4.29a11.7,11.7,0,0,1-3.66.49,5.91,5.91,0,0,1-4.26-1.58c-1-1.08-1.56-2.8-1.56-5.39V55.33h-2.42V51.16h2.42v-3.9Z"/><path class="cls-2" d="M15.85,81.9h5.66v26.37H15.85Z"/><path class="cls-2" d="M31.88,85.05a2.8,2.8,0,0,1-3,2.82,2.83,2.83,0,1,1,.05-5.65A2.79,2.79,0,0,1,31.88,85.05Zm-5.82,23.22V90.09h5.66v18.18Z"/><path class="cls-2" d="M42.54,84.91v5.18h4.07v4.17H42.54v6.59c0,2.19.54,3.2,2.23,3.2a7.54,7.54,0,0,0,1.68-.17l0,4.29a11.7,11.7,0,0,1-3.66.49,5.93,5.93,0,0,1-4.26-1.58c-1-1.07-1.56-2.8-1.56-5.38V94.26H34.6V90.09H37v-3.9Z"/><path class="cls-2" d="M15.85,128.38c0-2.39-.07-4.4-.15-6.11h4.91l.26,2.55H21A7,7,0,0,1,27,121.87c4,0,7.55,3.45,7.55,9.25,0,6.63-4.22,9.74-8.26,9.74a5.6,5.6,0,0,1-4.71-2.07H21.5v9H15.85Zm5.65,4.29a5.48,5.48,0,0,0,.12,1.18,3.42,3.42,0,0,0,3.3,2.68c2.44,0,3.9-2.06,3.9-5.14,0-2.89-1.3-5.1-3.81-5.1a3.54,3.54,0,0,0-3.38,2.86,4.17,4.17,0,0,0-.13,1Z"/><path class="cls-2" d="M38.05,128.27c0-2.67,0-4.43-.14-6h4.85l.21,3.37h.14a5.31,5.31,0,0,1,4.9-3.77,5,5,0,0,1,1.21.1v5.31a7.18,7.18,0,0,0-1.53-.15A3.64,3.64,0,0,0,43.82,130a6.68,6.68,0,0,0-.11,1.25v9.2H38.05Z"/><path class="cls-2" d="M69.8,131.18c0,6.64-4.71,9.68-9.58,9.68-5.29,0-9.39-3.5-9.39-9.37s3.87-9.62,9.71-9.62C66.1,121.87,69.8,125.69,69.8,131.18Zm-13.14.19c0,3.1,1.31,5.45,3.71,5.45,2.21,0,3.6-2.2,3.6-5.48,0-2.68-1-5.44-3.59-5.44S56.66,128.67,56.66,131.37Z"/><path class="cls-2" d="M69.57,143.81a5.15,5.15,0,0,0,3.33-1.2c.82-.85,1.12-2.3,1.12-5.92V122.27h5.66v15.78c0,4-.87,6.37-2.55,7.95a10.53,10.53,0,0,1-7,2.21Zm10.26-26.58a2.8,2.8,0,0,1-3,2.82,2.83,2.83,0,1,1,3-2.82Z"/><path class="cls-2" d="M88.45,133.18c.17,2.34,2.49,3.46,5.13,3.46a15.26,15.26,0,0,0,5-.77l.76,3.82a17.57,17.57,0,0,1-6.59,1.15c-6.15,0-9.69-3.59-9.69-9.25,0-4.62,2.88-9.72,9.16-9.72,5.89,0,8.12,4.57,8.12,9.07a10.86,10.86,0,0,1-.2,2.24Zm6.64-3.87c0-1.36-.6-3.69-3.17-3.69-2.39,0-3.36,2.18-3.51,3.69Z"/><path class="cls-2" d="M117.34,140a13.11,13.11,0,0,1-5.06.85c-5.87,0-9.61-3.59-9.61-9.3,0-5.32,3.63-9.66,10.39-9.66a12.93,12.93,0,0,1,4.31.72l-.88,4.19a7.68,7.68,0,0,0-3.16-.57,5.1,5.1,0,0,0,.09,10.2,8.52,8.52,0,0,0,3.26-.59Z"/><path class="cls-2" d="M127.34,117.09v5.18h4.07v4.17h-4.07V133c0,2.19.55,3.2,2.23,3.2a7.47,7.47,0,0,0,1.68-.17l.05,4.29a11.7,11.7,0,0,1-3.66.49,5.91,5.91,0,0,1-4.26-1.58c-1-1.07-1.56-2.8-1.56-5.38v-7.44H119.4v-4.17h2.42v-3.9Z"/></g></g></svg>