<svg xmlns="http://www.w3.org/2000/svg" viewBox="0 0 295.82 65.23"><defs><style>.cls-1{fill:#fff200;}.cls-2{fill:#231f20;}</style></defs><g id="Layer_2" data-name="Layer 2"><g id="Layer_1-2" data-name="Layer 1"><rect class="cls-1" width="295.82" height="65.23" rx="21.85"/><path class="cls-2" d="M26,42.3c.07-1.07.13-3,.13-4.83V18.87h5v9.2h.07a5.66,5.66,0,0,1,4.87-2.29c3.89,0,6.71,3.21,6.67,8.16,0,5.82-3.69,8.72-7.39,8.72a5.3,5.3,0,0,1-4.83-2.61h-.07L30.3,42.3Zm5.15-6.86a4.13,4.13,0,0,0,.09.89,3.07,3.07,0,0,0,3,2.39c2.13,0,3.46-1.67,3.46-4.57,0-2.51-1.12-4.49-3.45-4.49a3.07,3.07,0,0,0-2.95,2.47,4,4,0,0,0-.11.93Z"/><path class="cls-2" d="M45.91,18.87h5V42.3h-5Z"/><path class="cls-2" d="M70.91,34.06c0,5.9-4.18,8.6-8.51,8.6-4.7,0-8.34-3.11-8.34-8.32s3.44-8.56,8.63-8.56C67.63,25.78,70.91,29.18,70.91,34.06Zm-11.67.17c0,2.75,1.16,4.84,3.3,4.84,2,0,3.2-2,3.2-4.87,0-2.38-.92-4.83-3.2-4.83S59.24,31.83,59.24,34.23Z"/><path class="cls-2" d="M89.24,37.12c0,2.1.06,3.84.13,5.18H85L84.78,40h-.1a5.73,5.73,0,0,1-5,2.64c-3.28,0-5.67-2-5.67-7v-9.5h5v8.69c0,2.36.76,3.77,2.53,3.77A2.66,2.66,0,0,0,84,36.84a2.69,2.69,0,0,0,.19-1.07V26.14h5Z"/><path class="cls-2" d="M93.26,31.3c0-2-.06-3.71-.13-5.16h4.35l.24,2.24h.1a5.85,5.85,0,0,1,5-2.6c3.3,0,5.79,2.2,5.79,7V42.3h-5V33.35c0-2.09-.75-3.51-2.56-3.51a2.7,2.7,0,0,0-2.54,1.9A3.53,3.53,0,0,0,98.29,33V42.3h-5Z"/><path class="cls-2" d="M118,21.54v4.6h3.62v3.71H118V35.7c0,1.95.49,2.85,2,2.85a6.8,6.8,0,0,0,1.5-.15l0,3.81a10.4,10.4,0,0,1-3.26.44,5.24,5.24,0,0,1-3.78-1.41c-.93-1-1.39-2.49-1.39-4.78V29.85h-2.15V26.14h2.15V22.67Z"/><path class="cls-2" d="M131.18,18.87h5V42.3h-5Z"/><path class="cls-2" d="M145.42,21.66a2.49,2.49,0,0,1-2.7,2.51,2.52,2.52,0,1,1,2.7-2.51ZM140.25,42.3V26.14h5V42.3Z"/><path class="cls-2" d="M154.89,21.54v4.6h3.62v3.71h-3.62V35.7c0,1.95.49,2.85,2,2.85a6.77,6.77,0,0,0,1.49-.15l0,3.81a10.38,10.38,0,0,1-3.25.44,5.24,5.24,0,0,1-3.79-1.41c-.93-1-1.39-2.49-1.39-4.78V29.85h-2.14V26.14H150V22.67Z"/><path class="cls-2" d="M168.07,31.57c0-2.12-.06-3.91-.13-5.43h4.36l.23,2.27h.07A6.24,6.24,0,0,1,178,25.78c3.53,0,6.71,3.07,6.71,8.23,0,5.89-3.75,8.65-7.34,8.65a5,5,0,0,1-4.19-1.84h-.07v8h-5Zm5,3.81a4.93,4.93,0,0,0,.1,1,3,3,0,0,0,2.94,2.38c2.17,0,3.46-1.82,3.46-4.56,0-2.57-1.15-4.54-3.38-4.54a3.15,3.15,0,0,0-3,2.54,3.42,3.42,0,0,0-.12.9Z"/><path class="cls-2" d="M187.8,31.47c0-2.37,0-3.93-.13-5.33H192l.18,3h.12a4.74,4.74,0,0,1,4.36-3.35,4,4,0,0,1,1.08.1V30.6a6.39,6.39,0,0,0-1.36-.14A3.22,3.22,0,0,0,192.93,33a5.42,5.42,0,0,0-.1,1.12V42.3h-5Z"/><path class="cls-2" d="M216,34.06c0,5.9-4.18,8.6-8.51,8.6-4.7,0-8.34-3.11-8.34-8.32s3.44-8.56,8.63-8.56C212.73,25.78,216,29.18,216,34.06Zm-11.68.17c0,2.75,1.17,4.84,3.31,4.84,2,0,3.2-2,3.2-4.87,0-2.38-.92-4.83-3.2-4.83S204.33,31.83,204.33,34.23Z"/><path class="cls-2" d="M215.81,45.28a4.58,4.58,0,0,0,3-1.06c.73-.75,1-2,1-5.27V26.14h5v14c0,3.52-.77,5.65-2.27,7.06a9.41,9.41,0,0,1-6.24,2Zm9.12-23.62a2.5,2.5,0,0,1-2.7,2.51,2.52,2.52,0,1,1,2.7-2.51Z"/><path class="cls-2" d="M232.59,35.84c.15,2.08,2.21,3.07,4.56,3.07a13.57,13.57,0,0,0,4.44-.68l.68,3.39a15.5,15.5,0,0,1-5.85,1c-5.48,0-8.62-3.19-8.62-8.23,0-4.1,2.56-8.64,8.14-8.64,5.24,0,7.22,4.07,7.22,8.07a9.57,9.57,0,0,1-.18,2Zm5.9-3.44c0-1.21-.53-3.28-2.82-3.28-2.12,0-3,1.94-3.12,3.28Z"/><path class="cls-2" d="M258.27,41.89a11.76,11.76,0,0,1-4.5.76c-5.22,0-8.54-3.2-8.54-8.27,0-4.73,3.23-8.59,9.23-8.59a11.43,11.43,0,0,1,3.83.64l-.78,3.73a6.73,6.73,0,0,0-2.81-.51,4.19,4.19,0,0,0-4.34,4.52,4.23,4.23,0,0,0,4.42,4.55,7.4,7.4,0,0,0,2.9-.53Z"/><path class="cls-2" d="M267.16,21.54v4.6h3.61v3.71h-3.61V35.7c0,1.95.48,2.85,2,2.85a6.62,6.62,0,0,0,1.49-.15l0,3.81a10.28,10.28,0,0,1-3.25.44,5.22,5.22,0,0,1-3.78-1.41c-.94-1-1.39-2.49-1.39-4.78V29.85H260.1V26.14h2.15V22.67Z"/></g></g></svg>